<svg width="333" height="123" viewBox="0 0 333 123" fill="none" xmlns="http://www.w3.org/2000/svg">
<path d="M42.976 56.528H37.344V82H24.736V56.528H20.832V46.096H24.736V45.776C24.736 41.168 26.08 37.648 28.768 35.216C31.4987 32.7413 35.4027 31.504 40.48 31.504C41.504 31.504 42.2933 31.5253 42.848 31.568V42.256C42.5067 42.2133 42.0373 42.192 41.44 42.192C40.0747 42.192 39.072 42.512 38.432 43.152C37.792 43.7493 37.4293 44.7307 37.344 46.096H42.976V56.528ZM64.163 82.448C60.579 82.448 57.3577 81.7013 54.499 80.208C51.683 78.7147 49.4643 76.5813 47.843 73.808C46.2217 71.0347 45.411 67.7707 45.411 64.016C45.411 60.304 46.2217 57.0613 47.843 54.288C49.507 51.5147 51.747 49.3813 54.563 47.888C57.4217 46.3947 60.643 45.648 64.227 45.648C67.811 45.648 71.011 46.3947 73.827 47.888C76.6857 49.3813 78.9257 51.5147 80.547 54.288C82.211 57.0613 83.043 60.304 83.043 64.016C83.043 67.728 82.211 70.992 80.547 73.808C78.9257 76.5813 76.6857 78.7147 73.827 80.208C70.9683 81.7013 67.747 82.448 64.163 82.448ZM64.163 71.568C65.9123 71.568 67.363 70.928 68.515 69.648C69.7097 68.3253 70.307 66.448 70.307 64.016C70.307 61.584 69.7097 59.728 68.515 58.448C67.363 57.168 65.9337 56.528 64.227 56.528C62.5203 56.528 61.091 57.168 59.939 58.448C58.787 59.728 58.211 61.584 58.211 64.016C58.211 66.4907 58.7657 68.368 59.875 69.648C60.9843 70.928 62.4137 71.568 64.163 71.568ZM100.691 52.432C102.099 50.384 103.805 48.7627 105.811 47.568C107.816 46.3733 109.971 45.776 112.275 45.776V59.152H108.755C106.024 59.152 103.997 59.6853 102.675 60.752C101.352 61.8187 100.691 63.6747 100.691 66.32V82H88.1465V46.096H100.691V52.432ZM114.724 64.016C114.724 60.304 115.492 57.0613 117.028 54.288C118.564 51.5147 120.697 49.3813 123.428 47.888C126.201 46.3947 129.358 45.648 132.9 45.648C137.465 45.648 141.305 46.9067 144.42 49.424C147.534 51.8987 149.54 55.376 150.436 59.856H137.124C136.356 57.5093 134.862 56.336 132.644 56.336C131.065 56.336 129.806 56.9973 128.868 58.32C127.972 59.6 127.524 61.4987 127.524 64.016C127.524 66.5333 127.972 68.4533 128.868 69.776C129.806 71.0987 131.065 71.76 132.644 71.76C134.905 71.76 136.398 70.5867 137.124 68.24H150.436C149.54 72.6773 147.534 76.1547 144.42 78.672C141.305 81.1893 137.465 82.448 132.9 82.448C129.358 82.448 126.201 81.7013 123.428 80.208C120.697 78.7147 118.564 76.5813 117.028 73.808C115.492 71.0347 114.724 67.7707 114.724 64.016ZM153.599 64.016C153.599 60.304 154.26 57.0613 155.583 54.288C156.948 51.5147 158.783 49.3813 161.087 47.888C163.433 46.3947 166.036 45.648 168.895 45.648C171.369 45.648 173.503 46.1387 175.295 47.12C177.087 48.1013 178.473 49.424 179.455 51.088V46.096H191.999V82H179.455V77.008C178.473 78.672 177.065 79.9947 175.231 80.976C173.439 81.9573 171.327 82.448 168.895 82.448C166.036 82.448 163.433 81.7013 161.087 80.208C158.783 78.7147 156.948 76.5813 155.583 73.808C154.26 70.992 153.599 67.728 153.599 64.016ZM179.455 64.016C179.455 61.712 178.815 59.8987 177.535 58.576C176.297 57.2533 174.761 56.592 172.927 56.592C171.049 56.592 169.492 57.2533 168.255 58.576C167.017 59.856 166.399 61.6693 166.399 64.016C166.399 66.32 167.017 68.1547 168.255 69.52C169.492 70.8427 171.049 71.504 172.927 71.504C174.761 71.504 176.297 70.8427 177.535 69.52C178.815 68.1973 179.455 66.3627 179.455 64.016ZM214.443 82.448C211.2 82.448 208.299 81.9147 205.739 80.848C203.221 79.7387 201.216 78.2453 199.723 76.368C198.272 74.448 197.461 72.2933 197.291 69.904H209.451C209.621 71.056 210.155 71.952 211.051 72.592C211.947 73.232 213.056 73.552 214.378 73.552C215.403 73.552 216.213 73.3387 216.811 72.912C217.408 72.4853 217.707 71.9307 217.707 71.248C217.707 70.352 217.216 69.6907 216.235 69.264C215.253 68.8373 213.632 68.368 211.371 67.856C208.811 67.344 206.677 66.768 204.97 66.128C203.264 65.488 201.771 64.4427 200.491 62.992C199.253 61.5413 198.635 59.5787 198.635 57.104C198.635 54.9707 199.211 53.0507 200.363 51.344C201.515 49.5947 203.2 48.208 205.419 47.184C207.68 46.16 210.389 45.648 213.547 45.648C218.24 45.648 221.931 46.8 224.619 49.104C227.307 51.408 228.864 54.4373 229.291 58.192H217.963C217.749 57.04 217.237 56.1653 216.427 55.568C215.659 54.928 214.613 54.608 213.291 54.608C212.267 54.608 211.477 54.8 210.923 55.184C210.411 55.568 210.155 56.1013 210.155 56.784C210.155 57.6373 210.645 58.2987 211.627 58.768C212.608 59.1947 214.187 59.6427 216.363 60.112C218.965 60.6667 221.12 61.2853 222.827 61.968C224.576 62.6507 226.091 63.76 227.371 65.296C228.693 66.7893 229.354 68.8373 229.354 71.44C229.354 73.5307 228.736 75.408 227.499 77.072C226.304 78.736 224.576 80.0587 222.315 81.04C220.096 81.9787 217.472 82.448 214.443 82.448ZM256.706 71.312V82H251.266C242.092 82 237.506 77.456 237.506 68.368V56.528H233.09V46.096H237.506V37.392H250.114V46.096H256.642V56.528H250.114V68.56C250.114 69.5413 250.327 70.2453 250.753 70.672C251.223 71.0987 251.991 71.312 253.058 71.312H256.706ZM296.763 63.632C296.763 64.6133 296.699 65.5947 296.571 66.576H272.827C272.955 68.5387 273.488 70.0107 274.427 70.992C275.408 71.9307 276.646 72.4 278.139 72.4C280.23 72.4 281.723 71.4613 282.619 69.584H295.995C295.44 72.0587 294.352 74.2773 292.731 76.24C291.152 78.16 289.147 79.6747 286.715 80.784C284.283 81.8933 281.595 82.448 278.651 82.448C275.11 82.448 271.952 81.7013 269.179 80.208C266.448 78.7147 264.294 76.5813 262.715 73.808C261.179 71.0347 260.411 67.7707 260.411 64.016C260.411 60.2613 261.179 57.0187 262.715 54.288C264.251 51.5147 266.384 49.3813 269.115 47.888C271.888 46.3947 275.067 45.648 278.651 45.648C282.192 45.648 285.328 46.3733 288.059 47.824C290.79 49.2747 292.923 51.3653 294.459 54.096C295.995 56.784 296.763 59.9627 296.763 63.632ZM283.963 60.496C283.963 58.96 283.451 57.7653 282.427 56.912C281.403 56.016 280.123 55.568 278.587 55.568C277.051 55.568 275.792 55.9947 274.811 56.848C273.83 57.6587 273.19 58.8747 272.891 60.496H283.963ZM314.441 52.432C315.849 50.384 317.555 48.7627 319.561 47.568C321.566 46.3733 323.721 45.776 326.025 45.776V59.152H322.505C319.774 59.152 317.747 59.6853 316.425 60.752C315.102 61.8187 314.441 63.6747 314.441 66.32V82H301.897V46.096H314.441V52.432Z" fill="url(#paint0_linear_1829_82)"/>
<line x1="5.65634" y1="116.058" x2="25.0578" y2="87.3437" stroke="white" stroke-width="10" stroke-linecap="round"/>
<path d="M51 41L80.3648 6.44483" stroke="white" stroke-width="10" stroke-linecap="round"/>
<path d="M81 6L135 31" stroke="white" stroke-width="10" stroke-linecap="round"/>
<path d="M136 31.4453L156 12" stroke="white" stroke-width="10" stroke-linecap="round"/>
<path d="M156 12L170 38" stroke="white" stroke-width="10" stroke-linecap="round"/>
<path d="M182 89L191 111" stroke="white" stroke-width="10" stroke-linecap="round"/>
<path d="M191 111L230 86" stroke="white" stroke-width="10" stroke-linecap="round"/>
<path d="M298 42L328 20" stroke="white" stroke-width="10" stroke-linecap="round"/>
<defs>
<linearGradient id="paint0_linear_1829_82" x1="20" y1="-34" x2="391.5" y2="82" gradientUnits="userSpaceOnUse">
<stop stop-color="#AD4CAF"/>
<stop offset="1" stop-color="white"/>
</linearGradient>
</defs>
</svg>
